<svg width="40" height="40" viewBox="0 0 40 40" fill="none" xmlns="http://www.w3.org/2000/svg">
  <g clip-path="url(#clip0_2279_64602)">
    <path
      d="M4.16663 17.5003C4.16663 10.1365 10.1362 4.16699 17.5 4.16699C24.8638 4.16699 30.8333 10.1365 30.8333 17.5003C30.8333 18.1907 31.3929 18.7503 32.0833 18.7503C32.7736 18.7503 33.3333 18.1907 33.3333 17.5003C33.3333 8.75582 26.2445 1.66699 17.5 1.66699C8.75545 1.66699 1.66663 8.75582 1.66663 17.5003C1.66663 26.2448 8.75545 33.3337 17.5 33.3337H35.7323L31.1995 37.8664C30.7113 38.3546 30.7113 39.1461 31.1995 39.6342C31.6877 40.1224 32.4791 40.1224 32.9673 39.6342L39.192 33.4095C39.9242 32.6772 39.9242 31.4901 39.192 30.7578L32.9673 24.5331C32.4791 24.045 31.6877 24.045 31.1995 24.5331C30.7113 25.0213 30.7113 25.8127 31.1995 26.3009L35.7323 30.8337H17.5C10.1362 30.8337 4.16663 24.8641 4.16663 17.5003Z" />
  </g>
  <defs>
    <clipPath id="clip0_2279_64602">
      <rect width="40" height="40" fill="white" />
    </clipPath>
  </defs>
</svg>
