<svg width="40" height="40" viewBox="0 0 40 40" fill="none" xmlns="http://www.w3.org/2000/svg">
  <path
    d="M6.25004 5.83301C6.13953 5.83301 6.03355 5.87691 5.95541 5.95505C5.87727 6.03319 5.83337 6.13917 5.83337 6.24967V9.68634C5.83337 9.85049 5.80104 10.013 5.73822 10.1647C5.67541 10.3164 5.58333 10.4542 5.46726 10.5702C5.35118 10.6863 5.21339 10.7784 5.06173 10.8412C4.91007 10.904 4.74753 10.9363 4.58337 10.9363C4.41922 10.9363 4.25668 10.904 4.10502 10.8412C3.95336 10.7784 3.81556 10.6863 3.69949 10.5702C3.58342 10.4542 3.49134 10.3164 3.42852 10.1647C3.36571 10.013 3.33337 9.85049 3.33337 9.68634V6.24967C3.33337 4.63801 4.63837 3.33301 6.25004 3.33301H9.68671C9.85086 3.33301 10.0134 3.36534 10.1651 3.42816C10.3167 3.49098 10.4545 3.58305 10.5706 3.69912C10.6867 3.8152 10.7787 3.953 10.8416 4.10465C10.9044 4.25631 10.9367 4.41886 10.9367 4.58301C10.9367 4.74716 10.9044 4.90971 10.8416 5.06136C10.7787 5.21302 10.6867 5.35082 10.5706 5.46689C10.4545 5.58296 10.3167 5.67504 10.1651 5.73786C10.0134 5.80068 9.85086 5.83301 9.68671 5.83301H6.25004ZM29.0634 4.58301C29.0634 4.25149 29.1951 3.93354 29.4295 3.69912C29.6639 3.4647 29.9819 3.33301 30.3134 3.33301H33.75C35.36 3.33301 36.6667 4.63801 36.6667 6.24967V9.68634C36.6667 10.0179 36.535 10.3358 36.3006 10.5702C36.0662 10.8046 35.7482 10.9363 35.4167 10.9363C35.0852 10.9363 34.7672 10.8046 34.5328 10.5702C34.2984 10.3358 34.1667 10.0179 34.1667 9.68634V6.24967C34.1667 6.13917 34.1228 6.03319 34.0447 5.95505C33.9665 5.87691 33.8605 5.83301 33.75 5.83301H30.3134C29.9819 5.83301 29.6639 5.70131 29.4295 5.46689C29.1951 5.23247 29.0634 4.91453 29.0634 4.58301ZM4.58337 29.063C4.91489 29.063 5.23284 29.1947 5.46726 29.4291C5.70168 29.6635 5.83337 29.9815 5.83337 30.313V33.7497C5.83337 33.9797 6.02004 34.1663 6.25004 34.1663H9.68671C10.0182 34.1663 10.3362 34.298 10.5706 34.5325C10.805 34.7669 10.9367 35.0848 10.9367 35.4163C10.9367 35.7479 10.805 36.0658 10.5706 36.3002C10.3362 36.5346 10.0182 36.6663 9.68671 36.6663H6.25004C5.47649 36.6663 4.73463 36.3591 4.18765 35.8121C3.64066 35.2651 3.33337 34.5232 3.33337 33.7497V30.313C3.33337 29.9815 3.46507 29.6635 3.69949 29.4291C3.93391 29.1947 4.25185 29.063 4.58337 29.063ZM35.4167 29.063C35.7482 29.063 36.0662 29.1947 36.3006 29.4291C36.535 29.6635 36.6667 29.9815 36.6667 30.313V33.7497C36.6667 34.5232 36.3594 35.2651 35.8124 35.8121C35.2655 36.3591 34.5236 36.6663 33.75 36.6663H30.3134C29.9819 36.6663 29.6639 36.5346 29.4295 36.3002C29.1951 36.0658 29.0634 35.7479 29.0634 35.4163C29.0634 35.0848 29.1951 34.7669 29.4295 34.5325C29.6639 34.298 29.9819 34.1663 30.3134 34.1663H33.75C33.8605 34.1663 33.9665 34.1224 34.0447 34.0443C34.1228 33.9662 34.1667 33.8602 34.1667 33.7497V30.313C34.1667 29.9815 34.2984 29.6635 34.5328 29.4291C34.7672 29.1947 35.0852 29.063 35.4167 29.063ZM4.58337 15.313C4.91489 15.313 5.23284 15.4447 5.46726 15.6791C5.70168 15.9135 5.83337 16.2315 5.83337 16.563V23.4363C5.83337 23.6005 5.80104 23.763 5.73822 23.9147C5.67541 24.0664 5.58333 24.2042 5.46726 24.3202C5.35118 24.4363 5.21339 24.5284 5.06173 24.5912C4.91007 24.654 4.74753 24.6863 4.58337 24.6863C4.41922 24.6863 4.25668 24.654 4.10502 24.5912C3.95336 24.5284 3.81556 24.4363 3.69949 24.3202C3.58342 24.2042 3.49134 24.0664 3.42852 23.9147C3.36571 23.763 3.33337 23.6005 3.33337 23.4363V16.563C3.33337 16.2315 3.46507 15.9135 3.69949 15.6791C3.93391 15.4447 4.25185 15.313 4.58337 15.313ZM15.3134 4.58301C15.3134 4.25149 15.4451 3.93354 15.6795 3.69912C15.9139 3.4647 16.2319 3.33301 16.5634 3.33301H23.4367C23.6009 3.33301 23.7634 3.36534 23.9151 3.42816C24.0667 3.49098 24.2045 3.58305 24.3206 3.69912C24.4367 3.8152 24.5287 3.953 24.5916 4.10465C24.6544 4.25631 24.6867 4.41886 24.6867 4.58301C24.6867 4.74716 24.6544 4.90971 24.5916 5.06136C24.5287 5.21302 24.4367 5.35082 24.3206 5.46689C24.2045 5.58296 24.0667 5.67504 23.9151 5.73786C23.7634 5.80068 23.6009 5.83301 23.4367 5.83301H16.5634C16.2319 5.83301 15.9139 5.70131 15.6795 5.46689C15.4451 5.23247 15.3134 4.91453 15.3134 4.58301ZM15.3134 35.4163C15.3134 35.0848 15.4451 34.7669 15.6795 34.5325C15.9139 34.298 16.2319 34.1663 16.5634 34.1663H23.4367C23.7682 34.1663 24.0862 34.298 24.3206 34.5325C24.555 34.7669 24.6867 35.0848 24.6867 35.4163C24.6867 35.7479 24.555 36.0658 24.3206 36.3002C24.0862 36.5346 23.7682 36.6663 23.4367 36.6663H16.5634C16.2319 36.6663 15.9139 36.5346 15.6795 36.3002C15.4451 36.0658 15.3134 35.7479 15.3134 35.4163ZM35.4167 15.313C35.7482 15.313 36.0662 15.4447 36.3006 15.6791C36.535 15.9135 36.6667 16.2315 36.6667 16.563V23.4363C36.6667 23.7679 36.535 24.0858 36.3006 24.3202C36.0662 24.5546 35.7482 24.6863 35.4167 24.6863C35.0852 24.6863 34.7672 24.5546 34.5328 24.3202C34.2984 24.0858 34.1667 23.7679 34.1667 23.4363V16.563C34.1667 16.2315 34.2984 15.9135 34.5328 15.6791C34.7672 15.4447 35.0852 15.313 35.4167 15.313ZM6.25004 13.7497C6.25004 13.4182 6.38174 13.1002 6.61616 12.8658C6.85058 12.6314 7.16852 12.4997 7.50004 12.4997H10.8334C11.1649 12.4997 11.4828 12.6314 11.7173 12.8658C11.9517 13.1002 12.0834 13.4182 12.0834 13.7497C12.0834 14.0812 11.9517 14.3991 11.7173 14.6336C11.4828 14.868 11.1649 14.9997 10.8334 14.9997H7.50004C7.16852 14.9997 6.85058 14.868 6.61616 14.6336C6.38174 14.3991 6.25004 14.0812 6.25004 13.7497ZM15.4167 13.7497C15.4167 13.4182 15.5484 13.1002 15.7828 12.8658C16.0172 12.6314 16.3352 12.4997 16.6667 12.4997H20C20.3316 12.4997 20.6495 12.6314 20.8839 12.8658C21.1183 13.1002 21.25 13.4182 21.25 13.7497C21.25 14.0812 21.1183 14.3991 20.8839 14.6336C20.6495 14.868 20.3316 14.9997 20 14.9997H16.6667C16.3352 14.9997 16.0172 14.868 15.7828 14.6336C15.5484 14.3991 15.4167 14.0812 15.4167 13.7497ZM13.75 6.24967C14.0816 6.24967 14.3995 6.38137 14.6339 6.61579C14.8683 6.85021 15 7.16815 15 7.49967V10.833C15 11.1645 14.8683 11.4825 14.6339 11.7169C14.3995 11.9513 14.0816 12.083 13.75 12.083C13.4185 12.083 13.1006 11.9513 12.8662 11.7169C12.6317 11.4825 12.5 11.1645 12.5 10.833V7.49967C12.5 7.16815 12.6317 6.85021 12.8662 6.61579C13.1006 6.38137 13.4185 6.24967 13.75 6.24967ZM13.75 15.4163C14.0816 15.4163 14.3995 15.548 14.6339 15.7825C14.8683 16.0169 15 16.3348 15 16.6663V19.9997C15 20.3312 14.8683 20.6491 14.6339 20.8836C14.3995 21.118 14.0816 21.2497 13.75 21.2497C13.4185 21.2497 13.1006 21.118 12.8662 20.8836C12.6317 20.6491 12.5 20.3312 12.5 19.9997V16.6663C12.5 16.3348 12.6317 16.0169 12.8662 15.7825C13.1006 15.548 13.4185 15.4163 13.75 15.4163ZM13.75 23.333C14.0816 23.333 14.3995 23.4647 14.6339 23.6991C14.8683 23.9335 15 24.2515 15 24.583V31.2497C15 31.5812 14.8683 31.8991 14.6339 32.1336C14.3995 32.368 14.0816 32.4997 13.75 32.4997C13.4185 32.4997 13.1006 32.368 12.8662 32.1336C12.6317 31.8991 12.5 31.5812 12.5 31.2497V24.583C12.5 24.2515 12.6317 23.9335 12.8662 23.6991C13.1006 23.4647 13.4185 23.333 13.75 23.333ZM23.3334 13.7497C23.3334 13.4182 23.4651 13.1002 23.6995 12.8658C23.9339 12.6314 24.2519 12.4997 24.5834 12.4997H31.25C31.5816 12.4997 31.8995 12.6314 32.1339 12.8658C32.3683 13.1002 32.5 13.4182 32.5 13.7497C32.5 14.0812 32.3683 14.3991 32.1339 14.6336C31.8995 14.868 31.5816 14.9997 31.25 14.9997H24.5834C24.2519 14.9997 23.9339 14.868 23.6995 14.6336C23.4651 14.3991 23.3334 14.0812 23.3334 13.7497Z"/>
</svg>
